<svg xmlns="http://www.w3.org/2000/svg" viewBox="0 0 64 64" role="img" aria-label="State of Michigan">
  <rect width="64" height="64" fill="#003865"/>
  <path
    d="M23.2 12.2c2.2 1.4 4.3 4.2 4.3 7.5 0 2.1-.8 3.8-2 5.4 2.1 1.2 4.1 2.7 5.6 4.6 2.1 2.7 2.7 6.1.8 9.4-1.6 2.8-4.4 4.6-7.6 5.6-1.2.4-2.5.6-3.7.7-1.2.1-2.4.1-3.6-.1-1.4-.2-2.7-.6-4-1.2-.5-.2-.8-.8-.6-1.3l1-2.2c.2-.5.8-.8 1.3-.6 1 .4 2.1.7 3.2.8 1 .1 2.1.1 3.1 0 1-.1 2-.3 2.9-.6 2.2-.7 3.9-1.9 4.8-3.5.9-1.6.6-3.2-.6-4.7-1.2-1.5-3.1-2.7-5.2-3.6-.6-.3-.8-1-.4-1.5 1.6-2.1 2.6-4 2.6-6 0-2.7-1.5-4.9-3.2-6-.5-.3-.7-1-.4-1.5l1.1-2c.3-.5 1-.7 1.5-.4Z"
    fill="white"
    opacity="0.98"
  />
  <path
    d="M39.2 16.5c2.6.2 5.4 1.6 7.6 4.3 2.3 2.8 3.2 6.2 2.6 9.5-.6 3.3-2.7 6.1-5.8 8.1-2.6 1.7-5.7 2.6-9 2.9-.6.1-1.1-.4-1.2-1l-.2-2.4c-.1-.6.4-1.1 1-1.2 2.6-.2 5.1-.9 7.1-2.2 2.1-1.3 3.4-3 3.7-4.9.3-1.9-.3-3.9-1.8-5.7-1.3-1.6-3-2.5-4.6-2.6-.6 0-1.1-.6-1-1.2l.2-2.4c.1-.6.6-1 1.2-1Z"
    fill="white"
    opacity="0.98"
  />
</svg>
